<mxfile host="app.diagrams.net" modified="2023-03-09T22:51:05.941Z" agent="5.0 (X11; Ubuntu)" etag="_JP2qesJ26SShCLoqHWe" version="21.0.2" type="github">
  <diagram name="Page-1" id="2YBvvXClWsGukQMizWep">
    <mxGraphModel dx="2284" dy="795" grid="1" gridSize="10" guides="1" tooltips="1" connect="1" arrows="1" fold="1" page="1" pageScale="1" pageWidth="850" pageHeight="1100" math="0" shadow="0">
      <root>
        <mxCell id="0" />
        <mxCell id="1" parent="0" />
        <mxCell id="aM9ryv3xv72pqoxQDRHE-1" value=":app" style="shape=umlLifeline;perimeter=lifelinePerimeter;whiteSpace=wrap;html=1;container=0;dropTarget=0;collapsible=0;recursiveResize=0;outlineConnect=0;portConstraint=eastwest;newEdgeStyle={&quot;edgeStyle&quot;:&quot;elbowEdgeStyle&quot;,&quot;elbow&quot;:&quot;vertical&quot;,&quot;curved&quot;:0,&quot;rounded&quot;:0};" parent="1" vertex="1">
          <mxGeometry x="-734" y="56" width="100" height="680" as="geometry" />
        </mxCell>
        <mxCell id="aU3QWAh0OYQurqM9vYfw-17" value="" style="html=1;points=[];perimeter=orthogonalPerimeter;outlineConnect=0;targetShapes=umlLifeline;portConstraint=eastwest;newEdgeStyle={&quot;edgeStyle&quot;:&quot;elbowEdgeStyle&quot;,&quot;elbow&quot;:&quot;vertical&quot;,&quot;curved&quot;:0,&quot;rounded&quot;:0};" parent="aM9ryv3xv72pqoxQDRHE-1" vertex="1">
          <mxGeometry x="45" y="70" width="10" height="40" as="geometry" />
        </mxCell>
        <mxCell id="aM9ryv3xv72pqoxQDRHE-5" value=":MainView" style="shape=umlLifeline;perimeter=lifelinePerimeter;whiteSpace=wrap;html=1;container=0;dropTarget=0;collapsible=0;recursiveResize=0;outlineConnect=0;portConstraint=eastwest;newEdgeStyle={&quot;edgeStyle&quot;:&quot;elbowEdgeStyle&quot;,&quot;elbow&quot;:&quot;vertical&quot;,&quot;curved&quot;:0,&quot;rounded&quot;:0};" parent="1" vertex="1">
          <mxGeometry x="-604" y="56" width="100" height="680" as="geometry" />
        </mxCell>
        <mxCell id="aM9ryv3xv72pqoxQDRHE-6" value="" style="html=1;points=[];perimeter=orthogonalPerimeter;outlineConnect=0;targetShapes=umlLifeline;portConstraint=eastwest;newEdgeStyle={&quot;edgeStyle&quot;:&quot;elbowEdgeStyle&quot;,&quot;elbow&quot;:&quot;vertical&quot;,&quot;curved&quot;:0,&quot;rounded&quot;:0};" parent="aM9ryv3xv72pqoxQDRHE-5" vertex="1">
          <mxGeometry x="45" y="80" width="10" height="570" as="geometry" />
        </mxCell>
        <mxCell id="aU3QWAh0OYQurqM9vYfw-32" value="" style="html=1;points=[];perimeter=orthogonalPerimeter;outlineConnect=0;targetShapes=umlLifeline;portConstraint=eastwest;newEdgeStyle={&quot;edgeStyle&quot;:&quot;elbowEdgeStyle&quot;,&quot;elbow&quot;:&quot;vertical&quot;,&quot;curved&quot;:0,&quot;rounded&quot;:0};" parent="aM9ryv3xv72pqoxQDRHE-5" vertex="1">
          <mxGeometry x="50" y="140" width="10" height="40" as="geometry" />
        </mxCell>
        <mxCell id="aU3QWAh0OYQurqM9vYfw-33" value="Preparar ítems&lt;br&gt;estáticos y lee&lt;br&gt;dispositivos BT" style="html=1;align=left;spacingLeft=2;endArrow=block;rounded=0;edgeStyle=orthogonalEdgeStyle;curved=0;rounded=0;" parent="aM9ryv3xv72pqoxQDRHE-5" target="aU3QWAh0OYQurqM9vYfw-32" edge="1">
          <mxGeometry relative="1" as="geometry">
            <mxPoint x="55" y="120" as="sourcePoint" />
            <Array as="points">
              <mxPoint x="85" y="150" />
            </Array>
          </mxGeometry>
        </mxCell>
        <mxCell id="aU3QWAh0OYQurqM9vYfw-18" value="Inicia app.py" style="html=1;verticalAlign=bottom;startArrow=oval;endArrow=block;startSize=8;edgeStyle=elbowEdgeStyle;elbow=vertical;curved=0;rounded=0;" parent="1" target="aU3QWAh0OYQurqM9vYfw-17" edge="1" source="aU3QWAh0OYQurqM9vYfw-29">
          <mxGeometry relative="1" as="geometry">
            <mxPoint x="-814" y="126" as="sourcePoint" />
          </mxGeometry>
        </mxCell>
        <mxCell id="aU3QWAh0OYQurqM9vYfw-19" value="" style="shape=umlLifeline;perimeter=lifelinePerimeter;whiteSpace=wrap;html=1;container=0;dropTarget=0;collapsible=0;recursiveResize=0;outlineConnect=0;portConstraint=eastwest;newEdgeStyle={&quot;edgeStyle&quot;:&quot;elbowEdgeStyle&quot;,&quot;elbow&quot;:&quot;vertical&quot;,&quot;curved&quot;:0,&quot;rounded&quot;:0};participant=umlActor;" parent="1" vertex="1">
          <mxGeometry x="-797" y="56" width="20" height="670" as="geometry" />
        </mxCell>
        <mxCell id="aU3QWAh0OYQurqM9vYfw-29" value="" style="html=1;points=[];perimeter=orthogonalPerimeter;outlineConnect=0;targetShapes=umlLifeline;portConstraint=eastwest;newEdgeStyle={&quot;edgeStyle&quot;:&quot;elbowEdgeStyle&quot;,&quot;elbow&quot;:&quot;vertical&quot;,&quot;curved&quot;:0,&quot;rounded&quot;:0};" parent="aU3QWAh0OYQurqM9vYfw-19" vertex="1">
          <mxGeometry x="6" y="45" width="10" height="605" as="geometry" />
        </mxCell>
        <mxCell id="aU3QWAh0OYQurqM9vYfw-22" value="(Crear)" style="endArrow=open;endSize=12;dashed=1;html=1;rounded=0;" parent="1" source="aU3QWAh0OYQurqM9vYfw-17" target="aM9ryv3xv72pqoxQDRHE-6" edge="1">
          <mxGeometry width="160" relative="1" as="geometry">
            <mxPoint x="-684" y="206" as="sourcePoint" />
            <mxPoint x="-554" y="146" as="targetPoint" />
            <Array as="points">
              <mxPoint x="-584" y="146" />
            </Array>
          </mxGeometry>
        </mxCell>
        <mxCell id="aU3QWAh0OYQurqM9vYfw-26" value="sd" style="shape=umlFrame;whiteSpace=wrap;html=1;pointerEvents=0;" parent="1" vertex="1">
          <mxGeometry x="-830" y="10" width="810" height="810" as="geometry" />
        </mxCell>
        <mxCell id="aU3QWAh0OYQurqM9vYfw-28" value=":MainController" style="shape=umlLifeline;perimeter=lifelinePerimeter;whiteSpace=wrap;html=1;container=0;dropTarget=0;collapsible=0;recursiveResize=0;outlineConnect=0;portConstraint=eastwest;newEdgeStyle={&quot;edgeStyle&quot;:&quot;elbowEdgeStyle&quot;,&quot;elbow&quot;:&quot;vertical&quot;,&quot;curved&quot;:0,&quot;rounded&quot;:0};" parent="1" vertex="1">
          <mxGeometry x="-449" y="56" width="100" height="680" as="geometry" />
        </mxCell>
        <mxCell id="aU3QWAh0OYQurqM9vYfw-35" value="" style="html=1;points=[];perimeter=orthogonalPerimeter;outlineConnect=0;targetShapes=umlLifeline;portConstraint=eastwest;newEdgeStyle={&quot;edgeStyle&quot;:&quot;elbowEdgeStyle&quot;,&quot;elbow&quot;:&quot;vertical&quot;,&quot;curved&quot;:0,&quot;rounded&quot;:0};" parent="aU3QWAh0OYQurqM9vYfw-28" vertex="1">
          <mxGeometry x="45" y="95" width="10" height="555" as="geometry" />
        </mxCell>
        <mxCell id="aU3QWAh0OYQurqM9vYfw-30" value="(Crear)" style="endArrow=open;endSize=12;dashed=1;html=1;rounded=0;" parent="1" source="aU3QWAh0OYQurqM9vYfw-17" target="aU3QWAh0OYQurqM9vYfw-35" edge="1">
          <mxGeometry width="160" relative="1" as="geometry">
            <mxPoint x="-714" y="216" as="sourcePoint" />
            <mxPoint x="-499" y="216" as="targetPoint" />
            <Array as="points">
              <mxPoint x="-434" y="166" />
            </Array>
          </mxGeometry>
        </mxCell>
        <mxCell id="aU3QWAh0OYQurqM9vYfw-36" value="Selecciona dispositivo bluetooth" style="html=1;verticalAlign=bottom;endArrow=block;edgeStyle=elbowEdgeStyle;elbow=vertical;curved=0;rounded=0;" parent="1" target="aM9ryv3xv72pqoxQDRHE-6" edge="1" source="aU3QWAh0OYQurqM9vYfw-29">
          <mxGeometry width="80" relative="1" as="geometry">
            <mxPoint x="-804" y="246" as="sourcePoint" />
            <mxPoint x="-734" y="266" as="targetPoint" />
            <Array as="points">
              <mxPoint x="-594" y="246" />
            </Array>
          </mxGeometry>
        </mxCell>
        <mxCell id="aU3QWAh0OYQurqM9vYfw-37" value="Pasa MAC" style="html=1;verticalAlign=bottom;endArrow=block;edgeStyle=elbowEdgeStyle;elbow=vertical;curved=0;rounded=0;" parent="1" target="aU3QWAh0OYQurqM9vYfw-35" edge="1" source="aM9ryv3xv72pqoxQDRHE-6">
          <mxGeometry width="80" relative="1" as="geometry">
            <mxPoint x="-554" y="266" as="sourcePoint" />
            <mxPoint x="-299" y="266" as="targetPoint" />
            <Array as="points">
              <mxPoint x="-484" y="266" />
            </Array>
          </mxGeometry>
        </mxCell>
        <mxCell id="aU3QWAh0OYQurqM9vYfw-38" value="Presiona Botón Conectar BT" style="html=1;verticalAlign=bottom;endArrow=block;edgeStyle=elbowEdgeStyle;elbow=vertical;curved=0;rounded=0;" parent="1" edge="1" source="aU3QWAh0OYQurqM9vYfw-29">
          <mxGeometry width="80" relative="1" as="geometry">
            <mxPoint x="-804" y="296" as="sourcePoint" />
            <mxPoint x="-559" y="296" as="targetPoint" />
            <Array as="points">
              <mxPoint x="-594" y="296" />
            </Array>
          </mxGeometry>
        </mxCell>
        <mxCell id="aU3QWAh0OYQurqM9vYfw-39" value=":Robot" style="shape=umlLifeline;perimeter=lifelinePerimeter;whiteSpace=wrap;html=1;container=0;dropTarget=0;collapsible=0;recursiveResize=0;outlineConnect=0;portConstraint=eastwest;newEdgeStyle={&quot;edgeStyle&quot;:&quot;elbowEdgeStyle&quot;,&quot;elbow&quot;:&quot;vertical&quot;,&quot;curved&quot;:0,&quot;rounded&quot;:0};" parent="1" vertex="1">
          <mxGeometry x="-294" y="56" width="100" height="680" as="geometry" />
        </mxCell>
        <mxCell id="aU3QWAh0OYQurqM9vYfw-40" value="" style="html=1;points=[];perimeter=orthogonalPerimeter;outlineConnect=0;targetShapes=umlLifeline;portConstraint=eastwest;newEdgeStyle={&quot;edgeStyle&quot;:&quot;elbowEdgeStyle&quot;,&quot;elbow&quot;:&quot;vertical&quot;,&quot;curved&quot;:0,&quot;rounded&quot;:0};" parent="aU3QWAh0OYQurqM9vYfw-39" vertex="1">
          <mxGeometry x="45" y="95" width="10" height="555" as="geometry" />
        </mxCell>
        <mxCell id="aU3QWAh0OYQurqM9vYfw-41" value="(Crear)" style="endArrow=open;endSize=12;dashed=1;html=1;rounded=0;" parent="1" source="aU3QWAh0OYQurqM9vYfw-35" target="aU3QWAh0OYQurqM9vYfw-40" edge="1">
          <mxGeometry x="-0.0002" width="160" relative="1" as="geometry">
            <mxPoint x="-394" y="186" as="sourcePoint" />
            <mxPoint x="-389" y="176" as="targetPoint" />
            <Array as="points">
              <mxPoint x="-324" y="176" />
            </Array>
            <mxPoint as="offset" />
          </mxGeometry>
        </mxCell>
        <mxCell id="aU3QWAh0OYQurqM9vYfw-42" value=":BlueRobot" style="shape=umlLifeline;perimeter=lifelinePerimeter;whiteSpace=wrap;html=1;container=0;dropTarget=0;collapsible=0;recursiveResize=0;outlineConnect=0;portConstraint=eastwest;newEdgeStyle={&quot;edgeStyle&quot;:&quot;elbowEdgeStyle&quot;,&quot;elbow&quot;:&quot;vertical&quot;,&quot;curved&quot;:0,&quot;rounded&quot;:0};" parent="1" vertex="1">
          <mxGeometry x="-144" y="56" width="100" height="680" as="geometry" />
        </mxCell>
        <mxCell id="aU3QWAh0OYQurqM9vYfw-43" value="" style="html=1;points=[];perimeter=orthogonalPerimeter;outlineConnect=0;targetShapes=umlLifeline;portConstraint=eastwest;newEdgeStyle={&quot;edgeStyle&quot;:&quot;elbowEdgeStyle&quot;,&quot;elbow&quot;:&quot;vertical&quot;,&quot;curved&quot;:0,&quot;rounded&quot;:0};" parent="aU3QWAh0OYQurqM9vYfw-42" vertex="1">
          <mxGeometry x="45" y="95" width="10" height="480" as="geometry" />
        </mxCell>
        <mxCell id="aU3QWAh0OYQurqM9vYfw-44" value="señal de BT" style="html=1;verticalAlign=bottom;endArrow=block;edgeStyle=elbowEdgeStyle;elbow=vertical;curved=0;rounded=0;" parent="1" target="aU3QWAh0OYQurqM9vYfw-35" edge="1" source="aM9ryv3xv72pqoxQDRHE-6">
          <mxGeometry width="80" relative="1" as="geometry">
            <mxPoint x="-554" y="306" as="sourcePoint" />
            <mxPoint x="-299" y="316" as="targetPoint" />
            <Array as="points">
              <mxPoint x="-494" y="306" />
            </Array>
          </mxGeometry>
        </mxCell>
        <mxCell id="aU3QWAh0OYQurqM9vYfw-45" value="conecta a la dirección MAC " style="html=1;verticalAlign=bottom;endArrow=block;edgeStyle=elbowEdgeStyle;elbow=vertical;curved=0;rounded=0;" parent="1" edge="1" target="aU3QWAh0OYQurqM9vYfw-43" source="aU3QWAh0OYQurqM9vYfw-35">
          <mxGeometry width="80" relative="1" as="geometry">
            <mxPoint x="-399" y="374" as="sourcePoint" />
            <mxPoint x="-94.5" y="374" as="targetPoint" />
            <Array as="points">
              <mxPoint x="-339" y="374" />
            </Array>
          </mxGeometry>
        </mxCell>
        <mxCell id="aU3QWAh0OYQurqM9vYfw-46" value="comunicación exitosa" style="html=1;verticalAlign=bottom;endArrow=block;edgeStyle=elbowEdgeStyle;elbow=vertical;curved=0;rounded=0;dashed=1;" parent="1" edge="1" target="aU3QWAh0OYQurqM9vYfw-35" source="aU3QWAh0OYQurqM9vYfw-43">
          <mxGeometry width="80" relative="1" as="geometry">
            <mxPoint x="-94" y="399" as="sourcePoint" />
            <mxPoint x="-399.5526315789475" y="399" as="targetPoint" />
            <Array as="points">
              <mxPoint x="-144" y="399" />
            </Array>
          </mxGeometry>
        </mxCell>
        <mxCell id="aU3QWAh0OYQurqM9vYfw-48" value="muestra conexión exitosa" style="html=1;verticalAlign=bottom;endArrow=block;edgeStyle=elbowEdgeStyle;elbow=vertical;curved=0;rounded=0;dashed=1;exitX=0.014;exitY=0.556;exitDx=0;exitDy=0;exitPerimeter=0;" parent="1" edge="1" target="aM9ryv3xv72pqoxQDRHE-6" source="aU3QWAh0OYQurqM9vYfw-35">
          <mxGeometry width="80" relative="1" as="geometry">
            <mxPoint x="-399" y="453.47" as="sourcePoint" />
            <mxPoint x="-554" y="453.47" as="targetPoint" />
            <Array as="points">
              <mxPoint x="-449" y="453.47" />
            </Array>
          </mxGeometry>
        </mxCell>
        <mxCell id="aU3QWAh0OYQurqM9vYfw-49" value="Presiona Botón habilitar motores" style="html=1;verticalAlign=bottom;endArrow=block;edgeStyle=elbowEdgeStyle;elbow=vertical;curved=0;rounded=0;" parent="1" edge="1" source="aU3QWAh0OYQurqM9vYfw-29">
          <mxGeometry width="80" relative="1" as="geometry">
            <mxPoint x="-814" y="494" as="sourcePoint" />
            <mxPoint x="-559" y="494" as="targetPoint" />
            <Array as="points">
              <mxPoint x="-594" y="494" />
            </Array>
          </mxGeometry>
        </mxCell>
        <mxCell id="aU3QWAh0OYQurqM9vYfw-50" value="señal de Motores" style="html=1;verticalAlign=bottom;endArrow=block;edgeStyle=elbowEdgeStyle;elbow=vertical;curved=0;rounded=0;" parent="1" edge="1" source="aM9ryv3xv72pqoxQDRHE-6">
          <mxGeometry width="80" relative="1" as="geometry">
            <mxPoint x="-554" y="524" as="sourcePoint" />
            <mxPoint x="-404" y="524" as="targetPoint" />
            <Array as="points">
              <mxPoint x="-494" y="524" />
            </Array>
          </mxGeometry>
        </mxCell>
        <mxCell id="aU3QWAh0OYQurqM9vYfw-51" value="verifica estado motor" style="html=1;verticalAlign=bottom;endArrow=block;edgeStyle=elbowEdgeStyle;elbow=vertical;curved=0;rounded=0;" parent="1" edge="1" source="aU3QWAh0OYQurqM9vYfw-35">
          <mxGeometry width="80" relative="1" as="geometry">
            <mxPoint x="-399" y="534" as="sourcePoint" />
            <mxPoint x="-249" y="534" as="targetPoint" />
            <Array as="points">
              <mxPoint x="-339" y="534" />
            </Array>
          </mxGeometry>
        </mxCell>
        <mxCell id="aU3QWAh0OYQurqM9vYfw-54" value="comunicación exitosa" style="html=1;verticalAlign=bottom;endArrow=block;edgeStyle=elbowEdgeStyle;elbow=vertical;curved=0;rounded=0;dashed=1;" parent="1" target="aU3QWAh0OYQurqM9vYfw-35" edge="1">
          <mxGeometry width="80" relative="1" as="geometry">
            <mxPoint x="-99" y="618" as="sourcePoint" />
            <mxPoint x="-244" y="618" as="targetPoint" />
            <Array as="points">
              <mxPoint x="-149" y="618" />
            </Array>
          </mxGeometry>
        </mxCell>
        <mxCell id="aU3QWAh0OYQurqM9vYfw-58" value="estado de motores" style="html=1;verticalAlign=bottom;endArrow=block;edgeStyle=elbowEdgeStyle;elbow=vertical;curved=0;rounded=0;dashed=1;" parent="1" edge="1">
          <mxGeometry width="80" relative="1" as="geometry">
            <mxPoint x="-249" y="556" as="sourcePoint" />
            <mxPoint x="-394" y="556" as="targetPoint" />
            <Array as="points">
              <mxPoint x="-299" y="556" />
            </Array>
          </mxGeometry>
        </mxCell>
        <mxCell id="aU3QWAh0OYQurqM9vYfw-63" value="pregunta por&amp;nbsp;&lt;br&gt;estado de BT" style="html=1;verticalAlign=bottom;endArrow=block;edgeStyle=elbowEdgeStyle;elbow=vertical;curved=0;rounded=0;" parent="1" edge="1" source="aU3QWAh0OYQurqM9vYfw-35">
          <mxGeometry width="80" relative="1" as="geometry">
            <mxPoint x="-399" y="316" as="sourcePoint" />
            <mxPoint x="-249" y="316" as="targetPoint" />
            <Array as="points">
              <mxPoint x="-339" y="316" />
            </Array>
          </mxGeometry>
        </mxCell>
        <mxCell id="aU3QWAh0OYQurqM9vYfw-65" value="devuelve estado BT" style="html=1;verticalAlign=bottom;endArrow=block;edgeStyle=elbowEdgeStyle;elbow=vertical;curved=0;rounded=0;dashed=1;" parent="1" edge="1" target="aU3QWAh0OYQurqM9vYfw-35">
          <mxGeometry width="80" relative="1" as="geometry">
            <mxPoint x="-244" y="346" as="sourcePoint" />
            <mxPoint x="-399" y="346" as="targetPoint" />
            <Array as="points">
              <mxPoint x="-294" y="346" />
            </Array>
          </mxGeometry>
        </mxCell>
        <mxCell id="aU3QWAh0OYQurqM9vYfw-66" value="(Crear)" style="endArrow=open;endSize=12;dashed=1;html=1;rounded=0;" parent="1" target="aU3QWAh0OYQurqM9vYfw-43" edge="1" source="aU3QWAh0OYQurqM9vYfw-35">
          <mxGeometry x="-0.0002" width="160" relative="1" as="geometry">
            <mxPoint x="-399" y="196" as="sourcePoint" />
            <mxPoint x="-249" y="196" as="targetPoint" />
            <Array as="points">
              <mxPoint x="-329" y="196" />
            </Array>
            <mxPoint as="offset" />
          </mxGeometry>
        </mxCell>
        <mxCell id="aU3QWAh0OYQurqM9vYfw-67" value="cambia estado BT" style="html=1;verticalAlign=bottom;endArrow=block;edgeStyle=elbowEdgeStyle;elbow=vertical;curved=0;rounded=0;" parent="1" edge="1" source="aU3QWAh0OYQurqM9vYfw-35">
          <mxGeometry width="80" relative="1" as="geometry">
            <mxPoint x="-399" y="433" as="sourcePoint" />
            <mxPoint x="-249" y="433" as="targetPoint" />
            <Array as="points">
              <mxPoint x="-339" y="433" />
            </Array>
          </mxGeometry>
        </mxCell>
        <mxCell id="aU3QWAh0OYQurqM9vYfw-69" value="envia cambio &lt;br&gt;de habilitación" style="html=1;verticalAlign=bottom;endArrow=block;edgeStyle=elbowEdgeStyle;elbow=vertical;curved=0;rounded=0;" parent="1" target="aU3QWAh0OYQurqM9vYfw-43" edge="1">
          <mxGeometry width="80" relative="1" as="geometry">
            <mxPoint x="-394" y="586" as="sourcePoint" />
            <mxPoint x="-249" y="586" as="targetPoint" />
            <Array as="points">
              <mxPoint x="-339" y="586" />
            </Array>
          </mxGeometry>
        </mxCell>
        <mxCell id="aU3QWAh0OYQurqM9vYfw-70" value="cambia estado motores" style="html=1;verticalAlign=bottom;endArrow=block;edgeStyle=elbowEdgeStyle;elbow=vertical;curved=0;rounded=0;" parent="1" edge="1" source="aU3QWAh0OYQurqM9vYfw-35">
          <mxGeometry width="80" relative="1" as="geometry">
            <mxPoint x="-399" y="646" as="sourcePoint" />
            <mxPoint x="-249" y="646" as="targetPoint" />
            <Array as="points">
              <mxPoint x="-339" y="646" />
            </Array>
          </mxGeometry>
        </mxCell>
        <mxCell id="aU3QWAh0OYQurqM9vYfw-71" value="Indica estado &lt;br&gt;de los motores" style="html=1;verticalAlign=bottom;endArrow=block;edgeStyle=elbowEdgeStyle;elbow=vertical;curved=0;rounded=0;" parent="1" edge="1" target="aM9ryv3xv72pqoxQDRHE-6" source="aU3QWAh0OYQurqM9vYfw-35">
          <mxGeometry width="80" relative="1" as="geometry">
            <mxPoint x="-399" y="666" as="sourcePoint" />
            <mxPoint x="-554" y="666" as="targetPoint" />
            <Array as="points">
              <mxPoint x="-449" y="666" />
            </Array>
          </mxGeometry>
        </mxCell>
      </root>
    </mxGraphModel>
  </diagram>
</mxfile>
